<svg width="31" height="31" viewBox="0 0 31 31" fill="none" xmlns="http://www.w3.org/2000/svg">
<path d="M15.24 0.23999C6.9636 0.23999 0.23999 6.9636 0.23999 15.24C0.23999 17.9003 0.969569 20.383 2.18632 22.5502L0.264192 29.412C0.233484 29.5218 0.232097 29.6378 0.260168 29.7483C0.288239 29.8588 0.344788 29.96 0.424177 30.0418C0.503566 30.1237 0.60302 30.1833 0.712624 30.2147C0.822229 30.2461 0.938153 30.2482 1.04884 30.2209L8.20365 28.4478C10.3061 29.5702 12.6917 30.24 15.24 30.24C23.5164 30.24 30.24 23.5164 30.24 15.24C30.24 6.9636 23.5164 0.23999 15.24 0.23999ZM15.24 1.54434C22.8114 1.54434 28.9356 7.66855 28.9356 15.24C28.9356 22.8114 22.8114 28.9356 15.24 28.9356C12.8126 28.9356 10.5392 28.3028 8.56285 27.1969C8.4183 27.1162 8.24845 27.0934 8.08773 27.1332L1.82202 28.686L3.50213 22.6916C3.52617 22.6069 3.53281 22.5182 3.52165 22.4308C3.51048 22.3435 3.48175 22.2593 3.43717 22.1834C2.23609 20.1467 1.54434 17.777 1.54434 15.24C1.54434 7.66855 7.66855 1.54434 15.24 1.54434ZM9.7895 7.4139C9.37143 7.4139 8.77437 7.56944 8.28389 8.09792C7.9893 8.41535 6.76173 9.61141 6.76173 11.7142C6.76173 13.9065 8.2822 15.7982 8.46604 16.0412H8.46732V16.0425C8.44988 16.0196 8.70066 16.3827 9.03542 16.8182C9.37018 17.2537 9.8383 17.8256 10.4264 18.4448C11.6026 19.6832 13.2563 21.1144 15.3088 21.9897C16.254 22.3922 16.9997 22.6353 17.5646 22.8126C18.6116 23.1414 19.5653 23.0914 20.2816 22.9858C20.8178 22.9069 21.4075 22.6494 21.991 22.2802C22.5745 21.9109 23.1464 21.4518 23.3985 20.7542C23.5792 20.2541 23.671 19.7919 23.7042 19.4116C23.7208 19.2215 23.723 19.0536 23.7106 18.8983C23.6982 18.7429 23.7115 18.6239 23.5667 18.3862C23.263 17.8877 22.9192 17.8747 22.5604 17.6971C22.361 17.5984 21.7935 17.3213 21.2242 17.05C20.6556 16.7791 20.1632 16.5391 19.86 16.431C19.6684 16.362 19.4345 16.2628 19.097 16.301C18.7595 16.3393 18.4262 16.5828 18.2321 16.8704C18.0481 17.1431 17.3076 18.0172 17.0819 18.2741C17.0789 18.2723 17.0985 18.2813 17.0093 18.2372C16.7301 18.099 16.3886 17.9815 15.8832 17.7149C15.3779 17.4484 14.7458 17.0548 14.0541 16.445V16.4437C13.0246 15.5373 12.3034 14.3994 12.0759 14.0172C12.0913 13.9989 12.0741 14.021 12.1065 13.9891L12.1078 13.9879C12.3403 13.7589 12.5463 13.4853 12.7205 13.2847C12.9673 13.0003 13.0763 12.7496 13.1943 12.5154C13.4295 12.0485 13.2986 11.5348 13.1625 11.2645V11.2633C13.1664 11.2711 12.7244 10.2305 12.6733 10.1079C12.4291 9.52206 12.1565 8.86493 11.9944 8.48006V8.47878C11.8034 8.02544 11.545 7.69884 11.2072 7.54128C10.8694 7.38372 10.5709 7.42851 10.5589 7.42791H10.5576C10.3165 7.41679 10.052 7.4139 9.7895 7.4139ZM9.7895 8.71825C9.8621 8.71825 10.6675 8.72888 10.6557 8.72335C10.6139 8.70388 10.6706 8.69757 10.792 8.98574C10.9507 9.36261 11.2247 10.0221 11.4696 10.6098C11.5921 10.9037 11.7067 11.1794 11.7982 11.3957C11.8453 11.5069 11.997 11.729 11.997 11.8492C12.1224 11.9746 11.823 12.3282 11.7346 12.43C11.5226 12.6742 11.3064 12.9466 11.1919 13.0593C11.0918 13.1576 10.9111 13.3109 10.7983 13.6108C10.6854 13.9112 10.7381 14.3234 10.9193 14.6311C11.1607 15.0408 11.9559 16.3352 13.1918 17.4232C13.9701 18.1093 14.6951 18.5634 15.2744 18.869C15.8536 19.1745 16.3254 19.353 16.431 19.4052C16.6817 19.5293 16.9556 19.6256 17.2742 19.5874C17.5928 19.5491 17.8675 19.3558 18.0423 19.1581L18.0436 19.1569C18.2763 18.893 18.9677 18.1035 19.2995 17.6169C19.3136 17.6218 19.309 17.618 19.4193 17.6576V17.6589H19.4205C19.4709 17.6768 20.1015 17.9591 20.6637 18.227C21.226 18.4949 21.7967 18.7734 21.9821 18.8652C22.2497 18.9976 22.3762 19.0838 22.4088 19.0843C22.411 19.1416 22.4132 19.2038 22.405 19.2982C22.3821 19.5602 22.3121 19.9227 22.1719 20.3109C22.1032 20.5009 21.7454 20.8928 21.2943 21.1783C20.8431 21.4639 20.2939 21.6655 20.0905 21.6955C19.4791 21.7856 18.753 21.8185 17.9557 21.5681C17.4028 21.3946 16.7134 21.1699 15.8208 20.7898C14.0105 20.0178 12.4719 18.704 11.3728 17.5468C10.8233 16.9682 10.383 16.4296 10.0697 16.0221C9.75708 15.6154 9.62055 15.4037 9.50672 15.254L9.50544 15.2527C9.30338 14.9855 8.06608 13.2645 8.06608 11.7142C8.06608 10.0735 8.82814 9.43006 9.2405 8.98574C9.45698 8.75249 9.69365 8.71825 9.7895 8.71825Z" fill="#084CF9"/>
</svg>
