<svg width="25" height="35" viewBox="0 0 25 35" fill="none" xmlns="http://www.w3.org/2000/svg">
<path d="M3.78123 15.2442C3.0724 16.039 2.44542 17.1573 1.95729 18.3379C1.38573 19.5378 1.02313 20.8483 0.914078 22.2267C0.887548 22.4925 0.875886 22.7412 0.880215 22.9675C0.879628 23.0144 0.879333 23.0614 0.879333 23.1084C0.879333 29.4597 6.25192 34.6084 12.8793 34.6084C18.6031 34.6084 23.3909 30.768 24.5901 25.6293C24.7632 24.9873 24.8617 24.276 24.8757 23.4912C24.8778 23.378 24.8789 23.2652 24.8792 23.1526L24.8793 23.1084L24.8793 23.1011C24.8864 8.5808 10.7884 -0.657788 12.7464 0.749513C14.3749 1.92004 15.1104 13.3893 13.1025 16.4013C14.4015 17.4785 18.6212 21.4491 18.6185 27.024L18.6185 27.0275L18.6184 27.049C18.6183 27.1036 18.6177 27.1584 18.6167 27.2133C18.61 27.5941 18.5629 27.9393 18.4802 28.2509C17.9066 30.7447 15.6168 32.6084 12.8793 32.6084C9.7097 32.6084 7.1402 30.1098 7.1402 27.0275C7.1402 27.0047 7.14034 26.9819 7.14063 26.9591C7.13855 26.8493 7.14413 26.7286 7.15682 26.5996C7.20897 25.9307 7.38239 25.2947 7.65575 24.7124C7.8892 24.1395 8.18906 23.5968 8.52807 23.2111C9.53968 22.0602 12.1852 19.4515 12.1852 19.4515C12.1852 19.4515 10.2936 23.2111 12.1852 24.06C13.919 24.8382 13.7979 18.1463 13.0382 16.4936C12.6199 17.067 12.0883 17.2856 11.428 16.9936C7.47277 15.2442 11.428 7.49712 11.428 7.49712C11.428 7.49712 5.89643 12.8726 3.78123 15.2442Z" fill="#202024"/>
</svg>
