<svg width="31" height="31" viewBox="0 0 31 31" fill="none" xmlns="http://www.w3.org/2000/svg">
<path d="M3.6 0C1.62035 0 0 1.62035 0 3.6V26.64C0 28.6197 1.62035 30.24 3.6 30.24H15.7191C15.7968 30.2528 15.8762 30.2528 15.9539 30.24H20.0391C20.1168 30.2528 20.1962 30.2528 20.2739 30.24H26.64C28.6197 30.24 30.24 28.6197 30.24 26.64V3.6C30.24 1.62035 28.6197 0 26.64 0H3.6ZM3.6 1.44H26.64C27.8413 1.44 28.8 2.39869 28.8 3.6V26.64C28.8 27.8413 27.8413 28.8 26.64 28.8H20.88V18.72H23.6306L24.6389 13.68H20.88V12.24C20.88 11.8386 20.9182 11.8072 21.053 11.7197C21.1877 11.6321 21.6042 11.52 22.32 11.52H24.48V7.46578L24.0694 7.27031C24.0694 7.27031 22.4155 6.48 20.16 6.48C18.54 6.48 17.2091 7.12545 16.3575 8.19C15.5059 9.25455 15.12 10.68 15.12 12.24V13.68H12.96V18.72H15.12V28.8H3.6C2.39869 28.8 1.44 27.8413 1.44 26.64V3.6C1.44 2.39869 2.39869 1.44 3.6 1.44ZM20.16 7.92C21.6569 7.92 22.5989 8.25009 23.04 8.42484V10.08H22.32C21.4914 10.08 20.8274 10.1485 20.2683 10.5117C19.7092 10.8749 19.44 11.5643 19.44 12.24V15.12H22.8811L22.4494 17.28H19.44V28.8H16.56V17.28H14.4V15.12H16.56V12.24C16.56 10.92 16.8941 9.82545 17.4825 9.09C18.0709 8.35455 18.9 7.92 20.16 7.92Z" fill="#084CF9"/>
</svg>
