<svg width="600" height="189" viewBox="0 0 600 189" fill="none" xmlns="http://www.w3.org/2000/svg">
<path d="M523.9 0C483.34 0 445.033 16.3941 417.712 44.7909L219.7 227.467C201.673 246.204 177.732 256.45 152.1 256.45C99.4283 256.45 56.615 212.244 56.615 157.5C56.615 102.756 99.4283 58.5502 152.1 58.5502C177.732 58.5502 201.673 68.7965 220.827 88.7035L252.655 117.979L295.187 78.75L259.697 46.2546C230.967 16.3941 192.66 0 152.1 0C68.1633 0 0 70.8457 0 157.5C0 244.154 68.1633 315 152.1 315C192.66 315 230.967 298.606 258.288 270.209L456.3 87.5325C474.327 68.7965 498.268 58.5502 523.9 58.5502C576.572 58.5502 619.385 102.756 619.385 157.5C619.385 212.244 576.572 256.45 523.9 256.45C498.55 256.45 474.327 246.204 455.173 226.296L423.063 196.729L380.532 235.957L416.303 268.745C445.033 298.313 483.058 314.707 523.9 314.707C607.837 314.707 676 244.154 676 157.207C676 70.2602 607.837 0 523.9 0Z" fill="#1E1E1E"/>
</svg>
