<svg width="241" height="26" viewBox="0 0 241 26" fill="none" xmlns="http://www.w3.org/2000/svg">
<path d="M84.6894 0.964383C86.7068 0.964383 88.4139 1.30801 89.8106 1.99528C91.2073 2.66037 92.2714 3.61367 93.003 4.85517C93.7346 6.07451 94.1004 7.52662 94.1004 9.21152C94.1004 10.2092 93.9453 11.2179 93.6349 12.2377C93.3467 13.2353 92.87 14.1443 92.2049 14.9646C91.562 15.7848 90.6863 16.4499 89.5778 16.9598C88.4915 17.4476 87.1502 17.6914 85.554 17.6914H82.0955V25.4398H77.2736V0.964383H84.6894ZM85.5208 13.0025C86.2524 13.0025 86.862 12.8806 87.3498 12.6367C87.8375 12.3707 88.2144 12.0492 88.4804 11.6724C88.7686 11.2733 88.9682 10.8632 89.079 10.4419C89.212 10.0207 89.2785 9.65492 89.2785 9.34454C89.2785 9.10067 89.2342 8.77921 89.1455 8.38016C89.079 7.95893 88.9238 7.53771 88.6799 7.11648C88.4361 6.69526 88.0592 6.34054 87.5493 6.05234C87.0616 5.76413 86.3965 5.62003 85.554 5.62003H82.0955V13.0025H85.5208Z" fill="black"/>
<path d="M98.415 0.964383H103.237V20.7841H114.743V25.4398H98.415V0.964383Z" fill="black"/>
<path d="M119.719 0.964383H124.541V25.4398H119.719V0.964383Z" fill="black"/>
<path d="M149.214 23.4112C148.948 23.6329 148.449 23.9322 147.718 24.3091C147.008 24.686 146.133 25.0185 145.091 25.3067C144.049 25.595 142.896 25.728 141.632 25.7058C139.703 25.6615 137.974 25.3178 136.444 24.6749C134.937 24.0098 133.651 23.1119 132.587 21.9813C131.545 20.8506 130.747 19.5537 130.193 18.0905C129.638 16.6273 129.361 15.0643 129.361 13.4016C129.361 11.5393 129.638 9.83227 130.193 8.28039C130.769 6.72851 131.578 5.38724 132.62 4.25659C133.684 3.12593 134.948 2.25023 136.411 1.62948C137.874 1.00872 139.493 0.698347 141.266 0.698347C142.907 0.698347 144.359 0.920044 145.623 1.36344C146.886 1.80683 147.917 2.28348 148.715 2.79339L146.82 7.34926C146.266 6.92804 145.523 6.49573 144.592 6.05234C143.683 5.58677 142.63 5.35399 141.433 5.35399C140.502 5.35399 139.604 5.55352 138.739 5.95257C137.897 6.32946 137.143 6.87262 136.478 7.58205C135.835 8.29148 135.325 9.12284 134.948 10.0761C134.571 11.0073 134.383 12.0271 134.383 13.1356C134.383 14.3106 134.549 15.3858 134.881 16.3613C135.236 17.3367 135.735 18.1792 136.378 18.8886C137.021 19.5759 137.786 20.1079 138.673 20.4848C139.581 20.8617 140.601 21.0502 141.732 21.0502C143.04 21.0502 144.16 20.8395 145.091 20.4183C146.022 19.9971 146.731 19.5537 147.219 19.0881L149.214 23.4112Z" fill="black"/>
<path d="M151.285 25.4398L162.325 0H162.591L173.632 25.4398H168.045L160.995 7.54879L164.487 5.15446L156.04 25.4398H151.285ZM158.834 16.594H166.183L167.879 20.6511H157.337L158.834 16.594Z" fill="black"/>
<path d="M173.556 0.964383H190.05V5.62003H184.098V25.4398H179.276V5.62003H173.556V0.964383Z" fill="black"/>
<path d="M192.363 13.2353C192.363 11.5504 192.685 9.95421 193.327 8.44667C193.97 6.93912 194.857 5.60894 195.988 4.45612C197.141 3.28112 198.471 2.36108 199.978 1.69598C201.486 1.03089 203.104 0.698347 204.834 0.698347C206.541 0.698347 208.148 1.03089 209.655 1.69598C211.163 2.36108 212.493 3.28112 213.646 4.45612C214.821 5.60894 215.73 6.93912 216.373 8.44667C217.038 9.95421 217.371 11.5504 217.371 13.2353C217.371 14.9646 217.038 16.583 216.373 18.0905C215.73 19.598 214.821 20.9282 213.646 22.081C212.493 23.2117 211.163 24.0985 209.655 24.7414C208.148 25.3843 206.541 25.7058 204.834 25.7058C203.104 25.7058 201.486 25.3843 199.978 24.7414C198.471 24.0985 197.141 23.2117 195.988 22.081C194.857 20.9282 193.97 19.598 193.327 18.0905C192.685 16.583 192.363 14.9646 192.363 13.2353ZM197.351 13.2353C197.351 14.3216 197.54 15.3415 197.917 16.2948C198.316 17.2259 198.859 18.0572 199.546 18.7888C200.256 19.4983 201.065 20.0525 201.974 20.4516C202.905 20.8506 203.913 21.0502 205 21.0502C206.042 21.0502 207.006 20.8506 207.893 20.4516C208.802 20.0525 209.589 19.4983 210.254 18.7888C210.919 18.0572 211.44 17.2259 211.817 16.2948C212.194 15.3415 212.382 14.3216 212.382 13.2353C212.382 12.1268 212.183 11.0959 211.784 10.1427C211.407 9.18935 210.875 8.35799 210.188 7.64856C209.522 6.91696 208.735 6.35163 207.826 5.95257C206.917 5.55352 205.931 5.35399 204.867 5.35399C203.803 5.35399 202.816 5.55352 201.907 5.95257C200.998 6.35163 200.2 6.91696 199.513 7.64856C198.826 8.35799 198.293 9.18935 197.917 10.1427C197.54 11.0959 197.351 12.1268 197.351 13.2353Z" fill="black"/>
<path d="M229.594 0.964383C231.123 0.964383 232.487 1.16391 233.684 1.56297C234.881 1.93985 235.879 2.49409 236.677 3.2257C237.497 3.93513 238.118 4.79975 238.539 5.81955C238.96 6.81719 239.171 7.94785 239.171 9.21152C239.171 10.2092 239.016 11.2068 238.705 12.2044C238.417 13.2021 237.929 14.111 237.242 14.9313C236.577 15.7516 235.69 16.4167 234.582 16.9266C233.473 17.4143 232.099 17.6582 230.458 17.6582H227V25.4398H222.178V0.964383H229.594ZM230.425 13.0025C231.157 13.0025 231.766 12.8806 232.254 12.6367C232.742 12.3929 233.119 12.0825 233.385 11.7056C233.673 11.3287 233.872 10.9408 233.983 10.5417C234.116 10.1205 234.183 9.73251 234.183 9.3778C234.183 9.11176 234.138 8.77921 234.05 8.38016C233.983 7.95893 233.828 7.53771 233.584 7.11648C233.34 6.69526 232.963 6.34054 232.454 6.05234C231.966 5.76413 231.301 5.62003 230.458 5.62003H227V13.0025H230.425ZM234.948 15.9955L241 25.4398H235.38L229.195 16.1285L234.948 15.9955Z" fill="black"/>
<path d="M0 0.964383H4.82192V20.7841H16.328V25.4398H0V0.964383Z" fill="black"/>
<path d="M60.5326 0.498779C57.318 0.498779 54.2819 1.79682 52.1166 4.04521L36.423 18.5091C34.9943 19.9926 33.0968 20.8039 31.0653 20.8039C26.8908 20.8039 23.4976 17.3038 23.4976 12.9692C23.4976 8.63472 26.8908 5.13464 31.0653 5.13464C33.0968 5.13464 34.9943 5.94592 36.5123 7.52211L39.0349 9.84004L42.4057 6.73401L39.593 4.16111C37.3159 1.79682 34.2799 0.498779 31.0653 0.498779C24.4129 0.498779 19.0105 6.10817 19.0105 12.9692C19.0105 19.8303 24.4129 25.4397 31.0653 25.4397C34.2799 25.4397 37.3159 24.1417 39.4813 21.8933L55.1749 7.42939C56.6036 5.94592 58.5011 5.13464 60.5326 5.13464C64.7071 5.13464 68.1003 8.63472 68.1003 12.9692C68.1003 17.3038 64.7071 20.8039 60.5326 20.8039C58.5234 20.8039 56.6036 19.9926 55.0856 18.4164L52.5407 16.0753L49.1698 19.1813L52.0049 21.7774C54.2819 24.1185 57.2956 25.4165 60.5326 25.4165C67.185 25.4165 72.5874 19.8303 72.5874 12.9461C72.5874 6.06181 67.185 0.498779 60.5326 0.498779Z" fill="black"/>
</svg>
